<svg xmlns="http://www.w3.org/2000/svg" xmlns:xlink="http://www.w3.org/1999/xlink" width="50" zoomAndPan="magnify" viewBox="0 0 37.5 37.499999" height="50" preserveAspectRatio="xMidYMid meet" version="1.0"><defs><clipPath id="efbf4e27f5"><path d="M 14 11 L 34 11 L 34 33 L 14 33 Z M 14 11 " clip-rule="nonzero"/></clipPath><clipPath id="5b542b4f8b"><path d="M 23.527344 40.199219 L 8.167969 17.992188 L 22.351562 8.179688 L 37.714844 30.382812 Z M 23.527344 40.199219 " clip-rule="nonzero"/></clipPath><clipPath id="cf766df52b"><path d="M 8.21875 18.070312 L 23.582031 40.273438 L 37.765625 30.460938 L 22.40625 8.257812 Z M 8.21875 18.070312 " clip-rule="nonzero"/></clipPath><clipPath id="877f7fc75f"><path d="M 30 24 L 36 24 L 36 34 L 30 34 Z M 30 24 " clip-rule="nonzero"/></clipPath><clipPath id="a4fe1890d4"><path d="M 23.527344 40.199219 L 8.167969 17.992188 L 22.351562 8.179688 L 37.714844 30.382812 Z M 23.527344 40.199219 " clip-rule="nonzero"/></clipPath><clipPath id="2c9cdcb297"><path d="M 8.21875 18.070312 L 23.582031 40.273438 L 37.765625 30.460938 L 22.40625 8.257812 Z M 8.21875 18.070312 " clip-rule="nonzero"/></clipPath></defs><g clip-path="url(#efbf4e27f5)"><g clip-path="url(#5b542b4f8b)"><g clip-path="url(#cf766df52b)"><path fill="#ffffff" d="M 18.613281 11.355469 C 17.277344 12.695312 16.226562 14.308594 15.542969 16.066406 C 14.882812 17.777344 14.578125 19.636719 14.785156 21.453125 C 14.890625 22.359375 15.125 23.242188 15.492188 24.074219 C 15.902344 25.011719 16.511719 25.957031 17.421875 26.480469 C 18.246094 26.957031 19.230469 27 20.132812 26.6875 C 21.046875 26.375 21.804688 25.730469 22.300781 24.90625 C 22.824219 24.042969 23.089844 23.027344 23.109375 22.027344 C 23.121094 21.589844 23.046875 21.144531 22.855469 20.75 C 22.699219 20.421875 22.425781 20.128906 22.039062 20.089844 C 21.792969 20.066406 21.550781 20.160156 21.328125 20.265625 C 21.066406 20.390625 20.808594 20.539062 20.558594 20.683594 C 20.027344 20.996094 19.515625 21.339844 19.027344 21.714844 C 18.058594 22.460938 17.179688 23.328125 16.425781 24.289062 C 16.082031 24.726562 15.765625 25.191406 15.585938 25.71875 C 15.445312 26.132812 15.40625 26.570312 15.460938 27 C 15.566406 27.863281 16.042969 28.652344 16.625 29.277344 C 17.859375 30.597656 19.636719 31.328125 21.398438 31.652344 C 23.203125 31.980469 25.074219 31.867188 26.867188 31.460938 C 28.703125 31.046875 30.476562 30.335938 32.121094 29.414062 C 32.523438 29.191406 32.914062 28.953125 33.300781 28.707031 C 33.507812 28.574219 33.726562 28.886719 33.515625 29.019531 C 31.847656 30.097656 30.03125 30.960938 28.128906 31.527344 C 26.269531 32.078125 24.316406 32.34375 22.382812 32.171875 C 21.433594 32.085938 20.5 31.886719 19.601562 31.570312 C 18.707031 31.253906 17.84375 30.824219 17.101562 30.238281 C 16.355469 29.648438 15.707031 28.898438 15.339844 28.015625 C 14.964844 27.117188 14.957031 26.121094 15.371094 25.226562 C 15.617188 24.699219 15.972656 24.226562 16.34375 23.777344 C 16.753906 23.28125 17.195312 22.8125 17.667969 22.371094 C 18.609375 21.492188 19.664062 20.726562 20.800781 20.109375 C 21.28125 19.851562 21.800781 19.585938 22.351562 19.765625 C 22.777344 19.902344 23.0625 20.269531 23.242188 20.664062 C 23.429688 21.078125 23.503906 21.554688 23.496094 22.007812 C 23.480469 22.542969 23.40625 23.078125 23.265625 23.59375 C 22.988281 24.617188 22.449219 25.585938 21.625 26.277344 C 20.867188 26.910156 19.863281 27.296875 18.875 27.269531 C 16.597656 27.214844 15.285156 25.035156 14.71875 23.085938 C 14.1875 21.246094 14.234375 19.269531 14.710938 17.410156 C 15.199219 15.511719 16.117188 13.714844 17.355469 12.183594 C 17.65625 11.808594 17.980469 11.453125 18.320312 11.113281 C 18.390625 11.039062 18.507812 11.015625 18.589844 11.085938 C 18.664062 11.148438 18.6875 11.285156 18.613281 11.355469 Z M 18.613281 11.355469 " fill-opacity="1" fill-rule="nonzero"/></g></g></g><g clip-path="url(#877f7fc75f)"><g clip-path="url(#a4fe1890d4)"><g clip-path="url(#2c9cdcb297)"><path fill="#ffffff" d="M 30.867188 24.632812 C 31.949219 25.625 33.203125 26.429688 34.5625 26.992188 C 34.734375 27.066406 34.910156 27.132812 35.085938 27.195312 C 35.257812 27.257812 35.4375 27.328125 35.574219 27.453125 C 35.859375 27.714844 35.8125 28.082031 35.675781 28.410156 C 35.515625 28.785156 35.339844 29.15625 35.171875 29.53125 C 35 29.910156 34.828125 30.289062 34.65625 30.667969 C 34.265625 31.53125 33.875 32.394531 33.488281 33.257812 C 33.382812 33.484375 33.035156 33.320312 33.140625 33.097656 C 33.808594 31.617188 34.476562 30.132812 35.144531 28.652344 C 35.21875 28.488281 35.304688 28.324219 35.363281 28.15625 C 35.402344 28.042969 35.433594 27.910156 35.371094 27.804688 C 35.292969 27.667969 35.105469 27.613281 34.964844 27.5625 C 34.796875 27.5 34.628906 27.4375 34.460938 27.367188 C 33.796875 27.097656 33.160156 26.769531 32.554688 26.394531 C 31.863281 25.964844 31.214844 25.476562 30.621094 24.929688 C 30.4375 24.761719 30.6875 24.464844 30.867188 24.632812 Z M 30.867188 24.632812 " fill-opacity="1" fill-rule="nonzero"/></g></g></g></svg>